<svg xmlns="http://www.w3.org/2000/svg" viewBox="0 0 702.11 288.9"><defs><style>.cls-1,.cls-4{fill:none;stroke-width:14px;}.cls-1,.cls-2{stroke:#000;}.cls-1,.cls-2,.cls-4{stroke-miterlimit:10;}.cls-2{stroke-width:0.75px;}.cls-3{fill:red;}.cls-4{stroke:red;}</style></defs><g id="Livello_2" data-name="Livello 2"><g id="Livello_1-2" data-name="Livello 1"><path class="cls-1" d="M.07,281.9c233.85-2.5,467.7.5,702-.67"/><rect class="cls-2" x="91.57" y="70.9" width="24" height="25"/><rect class="cls-2" x="91.57" y="99.9" width="24" height="28"/><rect class="cls-2" x="121.57" y="70.9" width="24" height="25"/><rect class="cls-2" x="121.57" y="99.9" width="24" height="28"/><line class="cls-1" x1="38.07" y1="91.4" x2="38.07" y2="278.4"/><path d="M75.31,151.4h64.12v12.12H75.31ZM101,158.84h12.75v83.43H101Z"/><path d="M151.75,239.9a21.85,21.85,0,0,1-9.16-9.66A34,34,0,0,1,139.43,215V204.4a33.3,33.3,0,0,1,3.16-15.09,21.74,21.74,0,0,1,9.16-9.57,33.4,33.4,0,0,1,28.87,0,21.8,21.8,0,0,1,9.16,9.57,33.3,33.3,0,0,1,3.15,15.09v10.75a33.52,33.52,0,0,1-3.15,15.16,22,22,0,0,1-9.16,9.59,29.44,29.44,0,0,1-14.44,3.31A29.42,29.42,0,0,1,151.75,239.9Zm24.78-13q3.65-4.18,3.65-11.75V204.4q0-7.56-3.65-11.69t-10.35-4.12q-6.69,0-10.34,4.12t-3.66,11.69v10.75q0,7.56,3.66,11.75t10.34,4.19Q172.87,231.09,176.53,226.9Z"/><path d="M211.06,177.4h12.75v91.25H211.06Zm18.5,62.91a17.05,17.05,0,0,1-6.63-8.22l.88-13.57a15.52,15.52,0,0,0,1.5,7.13,10.42,10.42,0,0,0,4.34,4.5,14.2,14.2,0,0,0,6.91,1.56q6.31,0,9.78-3.84T249.81,217V203q0-7.12-3.47-11.06T236.56,188a14.67,14.67,0,0,0-6.91,1.5,10.11,10.11,0,0,0-4.34,4.41,15,15,0,0,0-1.5,7l-1.31-12.5a22.49,22.49,0,0,1,7.68-8.78,18.91,18.91,0,0,1,10.57-3.1,21.58,21.58,0,0,1,11.78,3.1,19.41,19.41,0,0,1,7.47,9,36.17,36.17,0,0,1,2.56,14.31V217a34.5,34.5,0,0,1-2.63,14.13,19.5,19.5,0,0,1-7.68,9,22.86,22.86,0,0,1-12.13,3.09A19.09,19.09,0,0,1,229.56,240.31Z"/><path class="cls-3" d="M296.81,242a46.69,46.69,0,0,1-11-3.75,46.05,46.05,0,0,1-9.53-6.25l7.94-9.75A35.85,35.85,0,0,0,295.68,229a39.79,39.79,0,0,0,13.57,2.25q9.87,0,15.31-3.65A11.77,11.77,0,0,0,330,217.21v-.06a11,11,0,0,0-2.47-7.53,14.83,14.83,0,0,0-6.38-4.13A71.62,71.62,0,0,0,311.06,203a1.35,1.35,0,0,0-.41-.06,1.29,1.29,0,0,1-.4-.06l-.94-.19a97.65,97.65,0,0,1-14.85-3.53,20.9,20.9,0,0,1-9.78-7.19q-4.06-5.2-4.06-14.84v-.06a26.38,26.38,0,0,1,3.78-14.41,23.73,23.73,0,0,1,11-9.09,47.78,47.78,0,0,1,27-2.07,48.33,48.33,0,0,1,9.32,3.16,54.38,54.38,0,0,1,9,5.28l-7.25,10.13a42.44,42.44,0,0,0-10.35-5.72,29.61,29.61,0,0,0-10.34-1.91q-9.31,0-14.47,3.72a12.21,12.21,0,0,0-5.15,10.53v.06a10,10,0,0,0,2.65,7.38,16,16,0,0,0,6.63,4,99.15,99.15,0,0,0,11,2.65,2.83,2.83,0,0,0,.47.1l.47.09.68.13.69.12a76,76,0,0,1,13.78,4,21.47,21.47,0,0,1,9.25,7.47q3.72,5.16,3.72,14.09v.13a25,25,0,0,1-3.94,14.22,24.46,24.46,0,0,1-11.4,9,47.13,47.13,0,0,1-18,3.09A59.16,59.16,0,0,1,296.81,242Z"/><path class="cls-3" d="M370.68,239.84a22.55,22.55,0,0,1-9.72-9.91,34.38,34.38,0,0,1-3.34-15.78v-7.31a38.17,38.17,0,0,1,3.22-16.44A23.1,23.1,0,0,1,370.18,180a28.92,28.92,0,0,1,14.75-3.56,23.5,23.5,0,0,1,13.88,4.06,25.29,25.29,0,0,1,8.78,11.75,50.33,50.33,0,0,1,3,18.44V215H366.87V204.71H398.5q-.57-7.94-4.1-12.34a11.5,11.5,0,0,0-9.47-4.41q-7.24,0-11.22,4.75t-4,13.44v8.25q0,8.06,4.25,12.37t12.06,4.32a20,20,0,0,0,7.69-1.57,22.23,22.23,0,0,0,6.81-4.37l8.37,8.37a35.25,35.25,0,0,1-10.81,7.16,30.75,30.75,0,0,1-12.06,2.53A32.5,32.5,0,0,1,370.68,239.84Z"/><path class="cls-3" d="M428.12,177.4h12.75v64.87H428.12Zm31.44,12.25a15.4,15.4,0,0,0-5.94-1.06q-6.06,0-9.41,3.34t-3.34,9.28l-1.31-12.5a23.86,23.86,0,0,1,7.75-9,18.33,18.33,0,0,1,10.5-3.22,23.9,23.9,0,0,1,8,1.28,18.09,18.09,0,0,1,6.28,3.78l-8.31,11.25A10.75,10.75,0,0,0,459.56,189.65Z"/><path class="cls-3" d="M520.93,177.4h13.32l-24.38,64.87h-9.62L475.87,177.4h13.31l15.88,46.31Z"/><path class="cls-3" d="M546.75,151.4H559.5v12.75H546.75Zm0,26H559.5v64.87H546.75Z"/><path class="cls-3" d="M589.9,239.9a22.46,22.46,0,0,1-9.59-9.63A32.41,32.41,0,0,1,577,215V204.34a31.79,31.79,0,0,1,3.31-15.07,22.39,22.39,0,0,1,9.59-9.53,32.48,32.48,0,0,1,15.16-3.28,36.22,36.22,0,0,1,9.53,1.22,28.22,28.22,0,0,1,8,3.53,21.73,21.73,0,0,1,5.94,5.63l-9.19,8.25a19,19,0,0,0-6.44-4.82,18.3,18.3,0,0,0-7.68-1.68q-7.38,0-11.44,4.12t-4.06,11.63V215q0,7.69,4,11.88t11.47,4.19a17.37,17.37,0,0,0,7.75-1.82,18.77,18.77,0,0,0,6.37-5.12l9.19,8.87a22.88,22.88,0,0,1-6,5.54,28.23,28.23,0,0,1-8,3.46,36.41,36.41,0,0,1-9.47,1.19A32.11,32.11,0,0,1,589.9,239.9Z"/><path class="cls-3" d="M653.81,239.84a22.55,22.55,0,0,1-9.72-9.91,34.25,34.25,0,0,1-3.34-15.78v-7.31A38.17,38.17,0,0,1,644,190.4,23,23,0,0,1,653.31,180a28.9,28.9,0,0,1,14.75-3.56,23.45,23.45,0,0,1,13.87,4.06,25.31,25.31,0,0,1,8.79,11.75,50.33,50.33,0,0,1,3,18.44V215H650V204.71h31.62q-.55-7.94-4.09-12.34a11.51,11.51,0,0,0-9.47-4.41q-7.24,0-11.22,4.75t-4,13.44v8.25q0,8.06,4.25,12.37c2.83,2.88,6.86,4.32,12.06,4.32a20,20,0,0,0,7.69-1.57,22.23,22.23,0,0,0,6.81-4.37l8.38,8.37a35.25,35.25,0,0,1-10.81,7.16,30.76,30.76,0,0,1-12.07,2.53A32.46,32.46,0,0,1,653.81,239.84Z"/><line class="cls-4" x1="8.82" y1="117.85" x2="121.72" y2="4.95"/><line class="cls-4" x1="224.72" y1="117.85" x2="111.82" y2="4.95"/><line class="cls-4" x1="318.72" y1="117.85" x2="205.82" y2="4.95"/><line class="cls-4" x1="272.72" y1="117.85" x2="159.82" y2="4.95"/></g></g></svg>